<?xml version="1.0" encoding="UTF-8"?>
<svg version="1.1" xmlns="http://www.w3.org/2000/svg" width="615" height="615">
<path d="M0 0 C1 1 1 1 1.1241985 2.87468249 C1.12362892 4.11807671 1.12362892 4.11807671 1.12304783 5.38659 C1.12503888 6.33954804 1.12702993 7.29250609 1.12908131 8.27434164 C1.12616847 9.33365769 1.12325563 10.39297373 1.12025452 11.48439026 C1.12153615 13.15788659 1.12153615 13.15788659 1.12284368 14.86519092 C1.12450175 18.63483395 1.11897179 22.40443328 1.11352539 26.17407227 C1.11324356 28.86384177 1.11335705 31.55360852 1.1139679 34.24337769 C1.11449333 40.05032879 1.11134455 45.8572687 1.10573006 51.664217 C1.09761761 60.06018318 1.0950001 68.45614392 1.09374207 76.8521136 C1.09155114 90.47261982 1.08488997 104.09312007 1.07543945 117.71362305 C1.06626638 130.94799774 1.05918503 144.18237082 1.05493164 157.41674805 C1.05466892 158.23193512 1.05440619 159.04712219 1.05413551 159.88701189 C1.05283051 163.9763927 1.05156679 168.06577352 1.05032361 172.15515435 C1.03994974 206.10344057 1.02233033 240.05171955 1 274 C-0.42496335 274.00849417 -1.84994154 274.01451904 -3.27492142 274.01952171 C-4.06845371 274.02314543 -4.86198599 274.02676915 -5.67956471 274.03050268 C-8.86969343 273.98856767 -11.97949816 273.63993013 -15.14355469 273.24072266 C-16.13289615 273.11819059 -16.13289615 273.11819059 -17.14222431 272.99318314 C-19.31947823 272.72212576 -21.49563856 272.44316181 -23.671875 272.1640625 C-25.24151571 271.9668463 -26.81121444 271.77009142 -28.38096619 271.57376099 C-32.62040725 271.04198797 -36.85891311 270.50308074 -41.09725571 269.96263123 C-44.66160866 269.50897391 -48.22646718 269.059361 -51.79132748 268.60971069 C-88.86852926 263.93209222 -125.9299663 259.12997637 -162.98298645 254.26480103 C-164.93895608 254.00801407 -166.89495367 253.75144013 -168.85095215 253.49487305 C-175.47450541 252.6258417 -182.09768969 251.75411222 -188.72012329 250.87658691 C-190.57240825 250.6311774 -192.42476103 250.38627906 -194.27719116 250.14196777 C-203.54770681 248.91759095 -212.78968104 247.62889672 -222 246 C-222.02465288 241.31860746 -222.04283739 236.63725241 -222.05493164 231.95581055 C-222.05997157 230.36205386 -222.0668035 228.76830181 -222.07543945 227.17456055 C-222.08751999 224.88849747 -222.09323155 222.60249533 -222.09765625 220.31640625 C-222.10281754 219.59973282 -222.10797882 218.88305939 -222.11329651 218.14466858 C-222.11349263 216.42936328 -222.06192007 214.71418734 -222 213 C-221 212 -221 212 -218.96875 211.8671875 C-218.1540625 211.86976563 -217.339375 211.87234375 -216.5 211.875 C-215.6853125 211.87242187 -214.870625 211.86984375 -214.03125 211.8671875 C-212 212 -212 212 -211 213 C-210.98327739 214.78293062 -211.03717073 216.56662336 -211.12109375 218.34765625 C-211.16943359 219.42724609 -211.21777344 220.50683594 -211.26757812 221.61914062 C-211.32365234 222.75544922 -211.37972656 223.89175781 -211.4375 225.0625 C-211.48970703 226.20267578 -211.54191406 227.34285156 -211.59570312 228.51757812 C-211.72584933 231.34530023 -211.86082879 234.17271 -212 237 C-210.78538086 237.1139209 -209.57076172 237.2278418 -208.31933594 237.34521484 C-197.1506294 238.41434373 -186.03970142 239.72444738 -174.92578125 241.2567749 C-155.97846586 243.86419173 -137.00751327 246.27134854 -118.02711868 248.623703 C-95.77765733 251.38191488 -73.53681823 254.1986032 -51.30731201 257.11356354 C-49.33522136 257.37202218 -47.36304571 257.62983201 -45.39086914 257.88763428 C-41.71476816 258.3686079 -38.03896819 258.8518109 -34.36328125 259.3359375 C-33.29934647 259.47519653 -32.23541168 259.61445557 -31.13923645 259.75793457 C-23.73861167 260.73748241 -16.38260861 261.86421406 -9 263 C-9 179.84 -9 96.68 -9 11 C-12.3 11.66 -15.6 12.32 -19 13 C-20.75979344 13.26130867 -22.52344658 13.49994201 -24.29174805 13.69555664 C-25.6795623 13.85428505 -25.6795623 13.85428505 -27.09541321 14.01622009 C-28.07841904 14.12559402 -29.06142487 14.23496796 -30.07421875 14.34765625 C-39.86250847 15.48171997 -49.63132372 16.72621315 -59.39453125 18.05859375 C-60.07547285 18.15135841 -60.75641445 18.24412308 -61.45799065 18.33969879 C-65.06094255 18.83067759 -68.66371519 19.32295634 -72.26638794 19.815979 C-80.27560437 20.91162782 -88.28605402 21.99818266 -96.296875 23.08203125 C-97.14472124 23.19674522 -97.99256748 23.3114592 -98.86610603 23.42964935 C-121.04708619 26.42787093 -143.24116354 29.32626319 -165.43627548 32.21770096 C-168.56656541 32.62552966 -171.6968142 33.03367287 -174.82705688 33.44186401 C-179.75754971 34.08466753 -184.68815668 34.72658774 -189.6188736 35.36767006 C-191.44895832 35.60563955 -193.27902145 35.84377528 -195.10906219 36.08208275 C-197.61111588 36.40775741 -200.11327791 36.73258519 -202.61547852 37.05712891 C-203.35605908 37.15364966 -204.09663965 37.25017042 -204.85966206 37.34961605 C-209.88529856 38 -209.88529856 38 -211 38 C-211.02505615 38.72179443 -211.0501123 39.44358887 -211.07592773 40.18725586 C-211.19151302 43.437535 -211.31440774 46.68749688 -211.4375 49.9375 C-211.47681641 51.07380859 -211.51613281 52.21011719 -211.55664062 53.38085938 C-211.59853516 54.46044922 -211.64042969 55.54003906 -211.68359375 56.65234375 C-211.73858032 58.15269165 -211.73858032 58.15269165 -211.79467773 59.68334961 C-212 62 -212 62 -213 63 C-214.8125 63.1328125 -214.8125 63.1328125 -217 63.125 C-217.721875 63.12757813 -218.44375 63.13015625 -219.1875 63.1328125 C-221 63 -221 63 -222 62 C-222.10082764 59.56339554 -222.13972603 57.15575299 -222.1328125 54.71875 C-222.13376923 53.99006714 -222.13472595 53.26138428 -222.13571167 52.51062012 C-222.13639335 50.9672029 -222.13453988 49.42378283 -222.13037109 47.88037109 C-222.12502262 45.510026 -222.13031642 43.13987041 -222.13671875 40.76953125 C-222.13605797 39.27343708 -222.1347768 37.77734303 -222.1328125 36.28125 C-222.13483673 35.56771362 -222.13686096 34.85417725 -222.13894653 34.11901855 C-222.11495191 29.11495191 -222.11495191 29.11495191 -221 28 C-218.4452657 27.57204702 -215.90268806 27.20135416 -213.33544922 26.86425781 C-212.52988083 26.7551004 -211.72431244 26.64594299 -210.89433289 26.53347778 C-208.19832029 26.16924971 -205.50152935 25.81115738 -202.8046875 25.453125 C-200.90409907 25.19782579 -199.00355661 24.94218419 -197.10305786 24.68621826 C-193.08304222 24.14566334 -189.06266872 23.60788238 -185.04199219 23.07226562 C-180.01395674 22.40244272 -174.98652746 21.72821259 -169.95933533 21.05209255 C-148.77856678 18.20390148 -127.59096619 15.41543904 -106.39102173 12.71369934 C-94.05451558 11.14096581 -81.72638841 9.50995141 -69.40014648 7.8586731 C-52.78101369 5.6367029 -36.15865402 3.46832473 -19.5 1.5625 C-18.41193054 1.43692215 -18.41193054 1.43692215 -17.30187988 1.30880737 C-4.19011255 -0.19658831 -4.19011255 -0.19658831 0 0 Z " fill="#C9A871" transform="translate(515,170)"/>
<path d="M0 0 C1.00023193 0.00523682 2.00046387 0.01047363 3.03100586 0.01586914 C4.00303955 0.0183667 4.97507324 0.02086426 5.9765625 0.0234375 C7.84235962 0.03709351 7.84235962 0.03709351 9.74584961 0.05102539 C13.68522461 0.07165039 17.62459961 0.09227539 21.68334961 0.11352539 C22.01334961 14.30352539 22.34334961 28.49352539 22.68334961 43.11352539 C25.32334961 40.80352539 27.96334961 38.49352539 30.68334961 36.11352539 C40.57838859 29.85171352 51.91709297 29.61322581 63.12084961 31.77758789 C74.43927615 35.09804466 83.30281995 42.90684756 89.37866211 52.90258789 C96.91956378 67.00079535 97.45019009 82.37384923 93.71069336 97.79711914 C89.94192338 109.9632245 82.07226857 119.50231531 70.87084961 125.61352539 C59.70833829 130.64451641 48.80673076 131.14502862 37.21459961 127.29321289 C31.71072137 125.05019402 27.30909157 121.81411896 22.68334961 118.11352539 C22.35334961 121.41352539 22.02334961 124.71352539 21.68334961 128.11352539 C13.43334961 128.11352539 5.18334961 128.11352539 -3.31665039 128.11352539 C-3.33919733 111.57205167 -3.35762951 95.03059099 -3.36846256 78.48910618 C-3.37362554 70.80913812 -3.38066828 63.12918026 -3.39208984 55.44921875 C-3.40203662 48.7577455 -3.4085038 42.06627963 -3.41073889 35.37479919 C-3.412046 31.82956938 -3.41513192 28.28436071 -3.42238045 24.73913765 C-3.43039419 20.78783895 -3.43064153 16.83656119 -3.43017578 12.88525391 C-3.43377106 11.70130539 -3.43736633 10.51735687 -3.44107056 9.29753113 C-3.43969589 8.2275589 -3.43832123 7.15758667 -3.43690491 6.05519104 C-3.4378267 5.11957116 -3.43874849 4.18395128 -3.43969822 3.21997929 C-3.26543243 0.23672597 -2.99114719 0.14657851 0 0 Z M26.15991211 63.91430664 C21.85789955 70.32180153 20.65657808 77.51774968 21.68334961 85.11352539 C23.83015569 93.53462781 28.34587997 100.25264116 35.62084961 105.05102539 C43.28945458 107.71156181 50.20926363 107.68299432 57.59741211 104.21508789 C62.9831026 100.86979115 66.37834524 95.95338547 68.68334961 90.11352539 C70.3967982 81.13303895 70.38442984 73.11552582 65.99584961 64.98852539 C61.80912561 59.78340907 57.4280601 55.4105851 50.68334961 54.11352539 C39.91505391 53.05326243 33.01962526 55.4414646 26.15991211 63.91430664 Z " fill="#E3B275" transform="translate(210.316650390625,245.886474609375)"/>
<path d="M0 0 C2.59106505 1.98849178 5.16617714 3.98611647 7.6875 6.0625 C7.74808594 5.42441406 7.80867188 4.78632813 7.87109375 4.12890625 C7.99677734 2.88947266 7.99677734 2.88947266 8.125 1.625 C8.24681641 0.38943359 8.24681641 0.38943359 8.37109375 -0.87109375 C8.6875 -2.9375 8.6875 -2.9375 9.6875 -3.9375 C11.45609193 -4.03696453 13.22861451 -4.06830217 15 -4.0703125 C16.07507813 -4.07160156 17.15015625 -4.07289063 18.2578125 -4.07421875 C19.38960938 -4.07035156 20.52140625 -4.06648438 21.6875 -4.0625 C22.81929688 -4.06636719 23.95109375 -4.07023437 25.1171875 -4.07421875 C26.19226563 -4.07292969 27.26734375 -4.07164062 28.375 -4.0703125 C29.36886719 -4.06918457 30.36273438 -4.06805664 31.38671875 -4.06689453 C33.6875 -3.9375 33.6875 -3.9375 34.6875 -2.9375 C34.78808243 -0.02092371 34.82365211 2.87200946 34.81689453 5.7890625 C34.81952301 7.16212555 34.81952301 7.16212555 34.82220459 8.56292725 C34.82662461 11.60447049 34.82368459 14.64595611 34.8203125 17.6875 C34.8209855 19.7911785 34.82195548 21.89485692 34.82321167 23.99853516 C34.82468885 28.41374449 34.82253345 32.82893363 34.81787109 37.24414062 C34.8121738 42.91742561 34.8154527 48.59066329 34.82144356 54.26394653 C34.82504864 58.60978556 34.82391083 62.95561328 34.82131577 67.30145264 C34.82064635 69.3939413 34.82147543 71.48643097 34.82379532 73.57891846 C34.82632098 76.49795266 34.82248248 79.41690912 34.81689453 82.3359375 C34.81891876 83.2097406 34.82094299 84.0835437 34.82302856 84.98382568 C34.80176236 90.94823764 34.80176236 90.94823764 33.6875 92.0625 C31.83380389 92.14987645 29.97682459 92.16948153 28.12109375 92.16015625 C26.99638672 92.15693359 25.87167969 92.15371094 24.71289062 92.15039062 C23.52888672 92.14201172 22.34488281 92.13363281 21.125 92.125 C19.93712891 92.12048828 18.74925781 92.11597656 17.52539062 92.11132812 C14.57940588 92.09949686 11.63344684 92.08156076 8.6875 92.0625 C8.3575 88.4325 8.0275 84.8025 7.6875 81.0625 C6.5325 82.135 5.3775 83.2075 4.1875 84.3125 C-4.28740161 91.65939369 -13.54825523 94.59632173 -24.8125 93.9375 C-37.93700771 92.27593359 -47.19763258 86.16819442 -55.6875 76.1875 C-64.37393775 64.73401152 -66.29168417 51.12297263 -65.3125 37.0625 C-63.21089829 22.630407 -57.3556386 11.58525103 -46.08203125 2.20703125 C-32.90967752 -7.23509841 -14.03441795 -8.2088105 0 0 Z M-30.3125 23.0625 C-30.87710938 23.57039063 -31.44171875 24.07828125 -32.0234375 24.6015625 C-37.21741309 29.94755689 -39.33001036 36.68927624 -39.6875 44.0625 C-39.19829064 53.08569483 -36.13796425 59.49230913 -29.83984375 65.984375 C-24.63784262 70.2617546 -19.19521693 71.41603495 -12.5625 70.9375 C-5.17809213 69.7154325 -0.28254175 66.18709319 4.07421875 60.13671875 C6.44888876 56.52368215 8.36628482 53.45244073 8.6875 49.0625 C8.73777344 48.41796875 8.78804687 47.7734375 8.83984375 47.109375 C9.21810078 38.45485413 7.03912018 30.49055713 1.46484375 23.7578125 C-3.56739138 18.95783438 -9.06256422 17.80750578 -15.875 17.5 C-21.96598017 17.71297133 -25.79211716 18.99621955 -30.3125 23.0625 Z " fill="#E1B175" transform="translate(449.3125,281.9375)"/>
<path d="M0 0 C1.65821263 1.65821263 1.12605572 3.61560995 1.12698364 5.89697266 C1.12980347 6.95708557 1.13262329 8.01719849 1.13552856 9.10943604 C1.13350433 10.28246277 1.1314801 11.4554895 1.12939453 12.6640625 C1.13114685 13.89155212 1.13289917 15.11904175 1.13470459 16.38372803 C1.13836283 19.75968279 1.13748964 23.13557661 1.1343255 26.51152802 C1.13180157 30.03714584 1.13413954 33.56276098 1.13571167 37.08837891 C1.13753327 43.01009593 1.13512732 48.93180049 1.13037109 54.85351562 C1.12492849 61.7091681 1.12669115 68.56479083 1.1321975 75.42044258 C1.13672891 81.29644081 1.13737904 87.17243007 1.13475883 93.04842949 C1.13319621 96.56234093 1.13300188 100.07623837 1.13629532 103.59014893 C1.13970832 107.50542363 1.13498383 111.42066477 1.12939453 115.3359375 C1.13141876 116.50896423 1.13344299 117.68199097 1.13552856 118.89056396 C1.13129883 120.48073334 1.13129883 120.48073334 1.12698364 122.10302734 C1.12660662 123.02997406 1.12622959 123.95692078 1.12584114 124.91195679 C1 127 1 127 0 128 C-1.78071246 128.08726223 -3.5648314 128.10699041 -5.34765625 128.09765625 C-6.42724609 128.09443359 -7.50683594 128.09121094 -8.61914062 128.08789062 C-9.75544922 128.07951172 -10.89175781 128.07113281 -12.0625 128.0625 C-13.20267578 128.05798828 -14.34285156 128.05347656 -15.51757812 128.04882812 C-18.34510351 128.03699747 -21.1725264 128.0205141 -24 128 C-25.2452918 125.50941641 -25.12583052 123.84581398 -25.12698364 121.05870056 C-25.12980347 120.01404129 -25.13262329 118.96938202 -25.13552856 117.89306641 C-25.13350433 116.74233643 -25.1314801 115.59160645 -25.12939453 114.40600586 C-25.13114685 113.19787735 -25.13289917 111.98974884 -25.13470459 110.74501038 C-25.1383588 107.42696381 -25.13749233 104.10897936 -25.1343255 100.79093623 C-25.13179892 97.32404797 -25.13414022 93.85716241 -25.13571167 90.39027405 C-25.13753225 84.5686902 -25.13512973 78.74711903 -25.13037109 72.92553711 C-25.12492613 66.18631123 -25.12669327 59.4471156 -25.1321975 52.70789045 C-25.13672877 46.92953575 -25.13737919 41.15119017 -25.13475883 35.37283427 C-25.13319646 31.91818245 -25.13300126 28.46354488 -25.13629532 25.00889397 C-25.13970813 21.16078379 -25.13498409 17.31270777 -25.12939453 13.46459961 C-25.13243088 11.73546829 -25.13243088 11.73546829 -25.13552856 9.97140503 C-25.13270874 8.92956558 -25.12988892 7.88772614 -25.12698364 6.8143158 C-25.1264181 5.44796698 -25.1264181 5.44796698 -25.12584114 4.05401516 C-25 2 -25 2 -24 1 C-16.1235882 0.02448111 -7.93171414 -0.51465321 0 0 Z " fill="#D5AD72" transform="translate(137,246)"/>
<path d="M0 0 C1 1 1 1 1.11352539 3.40844727 C1.10828857 4.45057373 1.10305176 5.4927002 1.09765625 6.56640625 C1.09443359 7.69111328 1.09121094 8.81582031 1.08789062 9.97460938 C1.07532227 11.75061523 1.07532227 11.75061523 1.0625 13.5625 C1.05798828 14.75037109 1.05347656 15.93824219 1.04882812 17.16210938 C1.03699675 20.10812226 1.02051287 23.05403681 1 26 C-2.30393777 26.68741948 -5.44427485 27.12205108 -8.8125 27.3125 C-13.83797255 27.80680878 -17.89553263 28.9951128 -22 32 C-26.10482557 37.05209301 -27.13364304 40.91994327 -27.09765625 47.28759766 C-27.09435303 48.34194 -27.0910498 49.39628235 -27.08764648 50.48257446 C-27.07934814 51.61496552 -27.0710498 52.74735657 -27.0625 53.9140625 C-27.05871338 55.08004974 -27.05492676 56.24603699 -27.05102539 57.44735718 C-27.0388016 61.17327548 -27.02016586 64.89911672 -27 68.625 C-26.97350658 73.53385199 -26.95346817 78.44266628 -26.9375 83.3515625 C-26.92920166 84.48800201 -26.92090332 85.62444153 -26.91235352 86.7953186 C-26.90739868 88.36737564 -26.90739868 88.36737564 -26.90234375 89.97119141 C-26.89448853 91.3587413 -26.89448853 91.3587413 -26.88647461 92.77432251 C-27 95 -27 95 -28 97 C-36.25 97 -44.5 97 -53 97 C-53.15566109 88.61759725 -53.30461539 80.23514762 -53.4429636 71.8524437 C-53.50750425 67.95656089 -53.57455928 64.06076144 -53.64819336 60.16503906 C-54.01967842 40.39734974 -53.97388012 20.75572481 -53 1 C-50.18739909 0.98454615 -47.37479814 0.9691452 -44.56219482 0.95413208 C-42.38861605 0.94182403 -40.21505311 0.92664539 -38.04150391 0.90991211 C-36.64810791 0.90616577 -36.64810791 0.90616577 -35.2265625 0.90234375 C-34.27346191 0.89710693 -33.32036133 0.89187012 -32.33837891 0.88647461 C-30 1 -30 1 -28 2 C-27.5859375 4.28515625 -27.5859375 4.28515625 -27.375 7.0625 C-27.30023438 7.98160156 -27.22546875 8.90070313 -27.1484375 9.84765625 C-27.09945313 10.55792969 -27.05046875 11.26820313 -27 12 C-26.39865234 11.31164062 -26.39865234 11.31164062 -25.78515625 10.609375 C-18.69722898 2.95891382 -10.46158485 -0.47552658 0 0 Z " fill="#DAAE73" transform="translate(375,277)"/>
<path d="M0 0 C1.02996094 -0.00128906 2.05992187 -0.00257813 3.12109375 -0.00390625 C4.74724609 0.00189453 4.74724609 0.00189453 6.40625 0.0078125 C7.49035156 0.00394531 8.57445312 0.00007813 9.69140625 -0.00390625 C10.72136719 -0.00261719 11.75132812 -0.00132812 12.8125 0 C14.24045898 0.00169189 14.24045898 0.00169189 15.69726562 0.00341797 C17.90625 0.1328125 17.90625 0.1328125 18.90625 1.1328125 C19.00683243 4.04938879 19.04240211 6.94232196 19.03564453 9.859375 C19.03739685 10.77475037 19.03914917 11.69012573 19.04095459 12.63323975 C19.04537461 15.67478299 19.04243459 18.71626861 19.0390625 21.7578125 C19.0397355 23.861491 19.04070548 25.96516942 19.04196167 28.06884766 C19.04343885 32.48405699 19.04128345 36.89924613 19.03662109 41.31445312 C19.0309238 46.98773811 19.0342027 52.66097579 19.04019356 58.33425903 C19.04379864 62.68009806 19.04266083 67.02592578 19.04006577 71.37176514 C19.03939635 73.4642538 19.04022543 75.55674347 19.04254532 77.64923096 C19.04507098 80.56826516 19.04123248 83.48722162 19.03564453 86.40625 C19.03766876 87.2800531 19.03969299 88.1538562 19.04177856 89.05413818 C19.02051236 95.01855014 19.02051236 95.01855014 17.90625 96.1328125 C16.12553754 96.22007473 14.3414186 96.23980291 12.55859375 96.23046875 C11.47900391 96.22724609 10.39941406 96.22402344 9.28710938 96.22070312 C8.15080078 96.21232422 7.01449219 96.20394531 5.84375 96.1953125 C4.70357422 96.19080078 3.56339844 96.18628906 2.38867188 96.18164062 C-0.43885351 96.16980997 -3.2662764 96.1533266 -6.09375 96.1328125 C-7.46084238 93.39862774 -7.22094543 91.22889349 -7.22314453 88.16796875 C-7.22629669 86.91064941 -7.22944885 85.65333008 -7.23269653 84.35791016 C-7.23090206 82.97037726 -7.22884997 81.58284467 -7.2265625 80.1953125 C-7.22723744 78.75830061 -7.22820905 77.32128884 -7.22946167 75.88427734 C-7.23094102 72.85106331 -7.22878406 69.81787859 -7.22412109 66.78466797 C-7.21854466 62.9794521 -7.22172144 59.17430798 -7.22755814 55.36909485 C-7.24641272 40.9080479 -7.17700703 26.46086576 -6.6484375 12.0078125 C-6.60969513 10.91098145 -6.57095276 9.81415039 -6.53103638 8.68408203 C-6.48969574 7.69520996 -6.4483551 6.70633789 -6.40576172 5.6875 C-6.3698996 4.82624512 -6.33403748 3.96499023 -6.29708862 3.07763672 C-5.88541521 -0.85979734 -3.42050078 0.00405273 0 0 Z " fill="#D4AC71" transform="translate(166.09375,277.8671875)"/>
<path d="M0 0 C4.36492736 2.40706674 5.93942071 4.83284673 7.8125 9.4375 C8.65722759 15.24500217 7.23898657 19.76409672 3.8125 24.4375 C0.4081582 27.58607519 -3.10173333 28.68750931 -7.6875 28.9375 C-12.26959441 28.6877095 -15.78912963 27.58935646 -19.1875 24.4375 C-21.67552069 20.97782625 -22.96741129 17.61130646 -23.75 13.4375 C-22.77244065 8.22385011 -19.95831179 4.0520637 -16.0625 0.5 C-10.781578 -2.49252246 -5.47719453 -2.39116329 0 0 Z " fill="#D6AD75" transform="translate(180.1875,240.5625)"/>
<path d="M0 0 C1.07507813 -0.00128906 2.15015625 -0.00257813 3.2578125 -0.00390625 C4.38960938 -0.00003906 5.52140625 0.00382812 6.6875 0.0078125 C7.81929688 0.00394531 8.95109375 0.00007813 10.1171875 -0.00390625 C11.19226563 -0.00261719 12.26734375 -0.00132812 13.375 0 C14.86580078 0.00169189 14.86580078 0.00169189 16.38671875 0.00341797 C18.6875 0.1328125 18.6875 0.1328125 19.6875 1.1328125 C19.78808243 4.04938879 19.82365211 6.94232196 19.81689453 9.859375 C19.81864685 10.77475037 19.82039917 11.69012573 19.82220459 12.63323975 C19.82662461 15.67478299 19.82368459 18.71626861 19.8203125 21.7578125 C19.8209855 23.861491 19.82195548 25.96516942 19.82321167 28.06884766 C19.82468885 32.48405699 19.82253345 36.89924613 19.81787109 41.31445312 C19.8121738 46.98773811 19.8154527 52.66097579 19.82144356 58.33425903 C19.82504864 62.68009806 19.82391083 67.02592578 19.82131577 71.37176514 C19.82064635 73.4642538 19.82147543 75.55674347 19.82379532 77.64923096 C19.82632098 80.56826516 19.82248248 83.48722162 19.81689453 86.40625 C19.81891876 87.2800531 19.82094299 88.1538562 19.82302856 89.05413818 C19.80176236 95.01855014 19.80176236 95.01855014 18.6875 96.1328125 C16.83380389 96.22018895 14.97682459 96.23979403 13.12109375 96.23046875 C11.99638672 96.22724609 10.87167969 96.22402344 9.71289062 96.22070312 C8.52888672 96.21232422 7.34488281 96.20394531 6.125 96.1953125 C4.93712891 96.19080078 3.74925781 96.18628906 2.52539062 96.18164062 C-0.42059412 96.16980936 -3.36655316 96.15187326 -6.3125 96.1328125 C-6.6425 91.5128125 -6.9725 86.8928125 -7.3125 82.1328125 C-6.6525 82.1328125 -5.9925 82.1328125 -5.3125 82.1328125 C-5.3125 86.0928125 -5.3125 90.0528125 -5.3125 94.1328125 C2.2775 94.1328125 9.8675 94.1328125 17.6875 94.1328125 C17.6875 63.7728125 17.6875 33.4128125 17.6875 2.1328125 C10.0975 2.1328125 2.5075 2.1328125 -5.3125 2.1328125 C-5.3125 6.0928125 -5.3125 10.0528125 -5.3125 14.1328125 C-5.9725 14.1328125 -6.6325 14.1328125 -7.3125 14.1328125 C-7.17220581 11.9866099 -7.02511836 9.84085032 -6.875 7.6953125 C-6.79378906 6.50035156 -6.71257812 5.30539062 -6.62890625 4.07421875 C-6.10421616 -0.80345577 -4.492611 0.00509862 0 0 Z " fill="#748862" transform="translate(464.3125,277.8671875)"/>
<path d="M0 0 C1.00023193 0.00523682 2.00046387 0.01047363 3.03100586 0.01586914 C4.00303955 0.0183667 4.97507324 0.02086426 5.9765625 0.0234375 C7.84235962 0.03709351 7.84235962 0.03709351 9.74584961 0.05102539 C13.68522461 0.07165039 17.62459961 0.09227539 21.68334961 0.11352539 C22.01334961 14.30352539 22.34334961 28.49352539 22.68334961 43.11352539 C24.33334961 41.46352539 25.98334961 39.81352539 27.68334961 38.11352539 C28.34334961 38.44352539 29.00334961 38.77352539 29.68334961 39.11352539 C28.56456578 40.28615443 27.4381191 41.45147677 26.30834961 42.61352539 C25.36862305 43.58805664 25.36862305 43.58805664 24.40991211 44.58227539 C22.68334961 46.11352539 22.68334961 46.11352539 20.68334961 46.11352539 C20.68334961 31.59352539 20.68334961 17.07352539 20.68334961 2.11352539 C13.09334961 2.11352539 5.50334961 2.11352539 -2.31665039 2.11352539 C-2.31665039 43.36352539 -2.31665039 84.61352539 -2.31665039 127.11352539 C5.27334961 127.11352539 12.86334961 127.11352539 20.68334961 127.11352539 C20.68334961 122.82352539 20.68334961 118.53352539 20.68334961 114.11352539 C21.34334961 114.11352539 22.00334961 114.11352539 22.68334961 114.11352539 C23.01334961 115.10352539 23.34334961 116.09352539 23.68334961 117.11352539 C23.35334961 117.44352539 23.02334961 117.77352539 22.68334961 118.11352539 C22.35334961 121.41352539 22.02334961 124.71352539 21.68334961 128.11352539 C13.43334961 128.11352539 5.18334961 128.11352539 -3.31665039 128.11352539 C-3.33919733 111.57205167 -3.35762951 95.03059099 -3.36846256 78.48910618 C-3.37362554 70.80913812 -3.38066828 63.12918026 -3.39208984 55.44921875 C-3.40203662 48.7577455 -3.4085038 42.06627963 -3.41073889 35.37479919 C-3.412046 31.82956938 -3.41513192 28.28436071 -3.42238045 24.73913765 C-3.43039419 20.78783895 -3.43064153 16.83656119 -3.43017578 12.88525391 C-3.43377106 11.70130539 -3.43736633 10.51735687 -3.44107056 9.29753113 C-3.43969589 8.2275589 -3.43832123 7.15758667 -3.43690491 6.05519104 C-3.4378267 5.11957116 -3.43874849 4.18395128 -3.43969822 3.21997929 C-3.26543243 0.23672597 -2.99114719 0.14657851 0 0 Z " fill="#678361" transform="translate(210.316650390625,245.886474609375)"/>
<path d="M0 0 C0 0.33 0 0.66 0 1 C-10.38551542 3.03949537 -20.76550176 4.50021344 -31.28369141 5.66113281 C-43.28882121 7.00012089 -55.26828027 8.52994368 -67.25 10.0625 C-68.26982971 10.1924234 -69.28965942 10.3223468 -70.34039307 10.45620728 C-81.57348158 11.88781784 -92.79414476 13.36784282 -104 15 C-105.45285466 15.20118077 -106.90593803 15.40072647 -108.359375 15.59765625 C-109.47828125 15.75105469 -110.5971875 15.90445313 -111.75 16.0625 C-112.89984375 16.21847656 -114.0496875 16.37445313 -115.234375 16.53515625 C-117.94946481 16.85274391 -117.94946481 16.85274391 -120 18 C-122.55157655 18.0716735 -125.07472971 18.09308442 -127.625 18.0625 C-128.33140625 18.05798828 -129.0378125 18.05347656 -129.765625 18.04882812 C-131.51045275 18.03703875 -133.255237 18.01910324 -135 18 C-135 17.67 -135 17.34 -135 17 C-124.06961617 15.520141 -113.1390256 14.04181849 -102.20819759 12.56524372 C-97.12771742 11.87891003 -92.04729914 11.19212595 -86.96704102 10.50415039 C-66.83716918 7.77854324 -46.70607498 5.05978299 -26.56222725 2.43910789 C-24.87740247 2.2193843 -23.19276862 1.99819082 -21.50834465 1.77541542 C-19.19434061 1.46984026 -16.87965875 1.17004919 -14.56469727 0.87182617 C-13.26621353 0.70253098 -11.9677298 0.53323578 -10.62989807 0.35881042 C-7.05972504 0.00590374 -3.58489651 -0.06452745 0 0 Z " fill="#4E7B5C" transform="translate(429,181)"/>
<path d="M0 0 C0.8146875 0.00257813 1.629375 0.00515625 2.46875 0.0078125 C3.2834375 0.00523437 4.098125 0.00265625 4.9375 0 C6.96875 0.1328125 6.96875 0.1328125 7.96875 1.1328125 C7.98547261 2.91574312 7.93157927 4.69943586 7.84765625 6.48046875 C7.79931641 7.56005859 7.75097656 8.63964844 7.70117188 9.75195312 C7.64509766 10.88826172 7.58902344 12.02457031 7.53125 13.1953125 C7.47904297 14.33548828 7.42683594 15.47566406 7.37304688 16.65039062 C7.24290067 19.47811273 7.10792121 22.3055225 6.96875 25.1328125 C8.47308594 25.26236328 8.47308594 25.26236328 10.0078125 25.39453125 C28.39398631 27.07246837 46.6752635 29.66795252 64.96875 32.1328125 C64.96875 32.4628125 64.96875 32.7928125 64.96875 33.1328125 C53.97820064 32.79374236 43.23373785 32.05838479 32.37475586 30.29418945 C25.74845487 29.2196719 19.11972098 28.43062575 12.43896484 27.77954102 C7.07054532 27.23460782 7.07054532 27.23460782 5.96875 26.1328125 C5.88148777 24.35210004 5.86175959 22.5679811 5.87109375 20.78515625 C5.87431641 19.70556641 5.87753906 18.62597656 5.88085938 17.51367188 C5.88923828 16.37736328 5.89761719 15.24105469 5.90625 14.0703125 C5.91076172 12.93013672 5.91527344 11.78996094 5.91992188 10.61523438 C5.93175253 7.78770899 5.9482359 4.9602861 5.96875 2.1328125 C3.32875 2.1328125 0.68875 2.1328125 -2.03125 2.1328125 C-2.03125 12.3628125 -2.03125 22.5928125 -2.03125 33.1328125 C-1.04125 33.4628125 -0.05125 33.7928125 0.96875 34.1328125 C-0.35125 34.1328125 -1.67125 34.1328125 -3.03125 34.1328125 C-3.05590288 29.45141996 -3.07408739 24.77006491 -3.08618164 20.08862305 C-3.09122157 18.49486636 -3.0980535 16.90111431 -3.10668945 15.30737305 C-3.11876999 13.02130997 -3.12448155 10.73530783 -3.12890625 8.44921875 C-3.13406754 7.73254532 -3.13922882 7.01587189 -3.14454651 6.27748108 C-3.14474263 4.56217578 -3.09317007 2.84699984 -3.03125 1.1328125 C-2.03125 0.1328125 -2.03125 0.1328125 0 0 Z " fill="#638263" transform="translate(296.03125,381.8671875)"/>
<path d="M0 0 C11.69528343 0.52795637 23.19077634 1.65195099 34.78515625 3.25 C36.42313689 3.47094025 38.06119517 3.69130562 39.69932556 3.91113281 C43.95636191 4.48388123 48.21235323 5.06404261 52.46813965 5.64599609 C56.8004313 6.23714303 61.13363786 6.82150075 65.46679688 7.40625 C70.34307886 8.06453823 75.21926979 8.72343134 80.09474182 9.38769531 C80.83544418 9.48852417 81.57614655 9.58935303 82.33929443 9.6932373 C84.32793217 9.9640977 86.31650329 10.23544704 88.30506897 10.50683594 C92.20094294 11.02681994 96.09931352 11.51760982 100 12 C100 12.33 100 12.66 100 13 C88.93590372 13.14536769 78.51751443 12.68651582 67.63671875 10.6484375 C56.52620398 8.63336668 45.32900942 7.31298439 34.125 5.9375 C30.99963433 5.55240338 27.87446165 5.1659442 24.74972534 4.77577209 C22.82556315 4.53561246 20.90104628 4.29826871 18.97610474 4.06443787 C12.60353208 3.27052137 6.30697332 2.20725083 0 1 C0 0.67 0 0.34 0 0 Z " fill="#608466" transform="translate(393,419)"/>
<path d="M0 0 C0.33 0 0.66 0 1 0 C1 2.31 1 4.62 1 7 C0.34 7 -0.32 7 -1 7 C-1.12375 7.7425 -1.2475 8.485 -1.375 9.25 C-2 12 -2 12 -3.01318359 13.80566406 C-4.26030606 16.57883001 -4.32114308 18.82400738 -4.4140625 21.859375 C-4.45273437 22.97441406 -4.49140625 24.08945312 -4.53125 25.23828125 C-4.5621875 26.39714844 -4.593125 27.55601562 -4.625 28.75 C-4.66367187 29.92433594 -4.70234375 31.09867187 -4.7421875 32.30859375 C-4.8363982 35.20557268 -4.92201602 38.10254626 -5 41 C-5.33 41 -5.66 41 -6 41 C-8.65802379 26.78814698 -7.18944116 12.64349996 0 0 Z " fill="#608767" transform="translate(391,298)"/>
<path d="M0 0 C0 0.33 0 0.66 0 1 C-0.62342285 1.08040527 -1.2468457 1.16081055 -1.88916016 1.24365234 C-16.60643737 3.14211664 -16.60643737 3.14211664 -31.3125 5.125 C-32.38113281 5.27195313 -33.44976562 5.41890625 -34.55078125 5.5703125 C-36.99638764 5.87905648 -36.99638764 5.87905648 -39 7 C-41.55157655 7.0716735 -44.07472971 7.09308442 -46.625 7.0625 C-47.33140625 7.05798828 -48.0378125 7.05347656 -48.765625 7.04882812 C-50.51045275 7.03703875 -52.255237 7.01910324 -54 7 C-54 6.67 -54 6.34 -54 6 C-47.91803272 5.13672341 -41.83487729 4.28256334 -35.75048828 3.43652344 C-33.68438906 3.14796029 -31.61862497 2.85698629 -29.55322266 2.56347656 C-26.57020327 2.14000592 -23.58605305 1.72545898 -20.6015625 1.3125 C-19.23531235 1.11563599 -19.23531235 1.11563599 -17.84146118 0.91479492 C-11.85836137 0.09821753 -6.03605235 -0.15347186 0 0 Z " fill="#5C8262" transform="translate(348,192)"/>
<path d="M0 0 C1.32 0 2.64 0 4 0 C3.67657623 0.54271545 3.35315247 1.08543091 3.01992798 1.64459229 C1.79370536 4.47641402 1.72207924 6.60336377 1.68115234 9.68652344 C1.66128265 10.82740417 1.64141296 11.96828491 1.62094116 13.14373779 C1.60938995 14.36989807 1.59783875 15.59605835 1.5859375 16.859375 C1.56657135 18.11888977 1.5472052 19.37840454 1.5272522 20.67608643 C1.47761586 24.0166095 1.43633723 27.35702325 1.39910889 30.69769287 C1.35902661 34.10976048 1.30795361 37.52166176 1.2578125 40.93359375 C1.16174963 47.62228881 1.07670325 54.31105644 1 61 C0.67 61 0.34 61 0 61 C0 40.87 0 20.74 0 0 Z " fill="#EDB26F" transform="translate(323,280)"/>
<path d="M0 0 C3.41417105 5.12125658 2.51024484 11.02460258 2 17 C-0.62149696 28.51909008 -0.62149696 28.51909008 -5 32 C-8.1875 33.1875 -8.1875 33.1875 -11 34 C-10.41992188 33.36384766 -10.41992188 33.36384766 -9.828125 32.71484375 C-0.50941807 22.2197654 0.08433691 13.85233743 0 0 Z " fill="#588061" transform="translate(279,316)"/>
<path d="M0 0 C-2.46094127 5.72957609 -7.45237694 9.77926395 -13 12.4375 C-13.66 12.623125 -14.32 12.80875 -15 13 C-13.50536684 9.3852622 -11.4391696 7.35564512 -8.5 4.8125 C-7.7059375 4.11769531 -6.911875 3.42289062 -6.09375 2.70703125 C-2.77345538 0 -2.77345538 0 0 0 Z " fill="#A2986B" transform="translate(409,282)"/>
<path d="M0 0 C0.33 0 0.66 0 1 0 C1 7.92 1 15.84 1 24 C-0.65 24 -2.3 24 -4 24 C-3.01 22.515 -3.01 22.515 -2 21 C-0.68019297 18.84853886 -0.68019297 18.84853886 -1.5625 15.5625 C-2.35325584 10.19524472 -1.16528066 5.23894777 0 0 Z " fill="#F0B87C" transform="translate(301,207)"/>
<path d="M0 0 C0.66 0.33 1.32 0.66 2 1 C1.25 3.375 1.25 3.375 0 6 C-0.6703125 6.268125 -1.340625 6.53625 -2.03125 6.8125 C-2.6809375 7.204375 -3.330625 7.59625 -4 8 C-4.70373017 10.64787088 -4.70373017 10.64787088 -4.75 13.625 C-4.80671875 14.62789062 -4.8634375 15.63078125 -4.921875 16.6640625 C-4.94765625 17.43492187 -4.9734375 18.20578125 -5 19 C-7.39251268 15.41123098 -7.55967086 14.23750792 -7 10 C-5.12838041 6.26371852 -2.95626434 2.95626434 0 0 Z " fill="#878E66" transform="translate(164,241)"/>
<path d="M0 0 C0.66 0 1.32 0 2 0 C2.33 0.99 2.66 1.98 3 3 C2.67 3.33 2.34 3.66 2 4 C1.67 7.3 1.34 10.6 1 14 C-6.92 14 -14.84 14 -23 14 C-23 13.67 -23 13.34 -23 13 C-15.41 13 -7.82 13 0 13 C0 8.71 0 4.42 0 0 Z " fill="#648462" transform="translate(231,360)"/>
<path d="M0 0 C0.82638376 2.89234315 1 4.88742431 1 8 C-2.49357358 11.49357358 -4.9427194 13.55376936 -10 14 C-9.34 13.01 -8.68 12.02 -8 11 C-7.34 11 -6.68 11 -6 11 C-5.7525 10.484375 -5.505 9.96875 -5.25 9.4375 C-3.60418384 6.22815849 -1.8023904 3.12414336 0 0 Z " fill="#989769" transform="translate(456,336)"/>
<path d="M0 0 C1.13598633 0.00483398 1.13598633 0.00483398 2.29492188 0.00976562 C3.47344727 0.02233398 3.47344727 0.02233398 4.67578125 0.03515625 C5.47306641 0.03966797 6.27035156 0.04417969 7.09179688 0.04882812 C9.05732382 0.06059775 11.0228121 0.07853277 12.98828125 0.09765625 C12.98828125 0.42765625 12.98828125 0.75765625 12.98828125 1.09765625 C11.94929688 1.11183594 10.9103125 1.12601562 9.83984375 1.140625 C1.96193654 1.36943604 -4.1488513 1.80332405 -10.99609375 6.13671875 C-13.01171875 7.09765625 -13.01171875 7.09765625 -15.27734375 6.74609375 C-15.8496875 6.53210938 -16.42203125 6.318125 -17.01171875 6.09765625 C-15.40881345 5.28267063 -13.80434597 4.47075698 -12.19921875 3.66015625 C-11.30589844 3.20769531 -10.41257813 2.75523437 -9.4921875 2.2890625 C-6.19025044 0.70309273 -3.62604605 -0.0272635 0 0 Z " fill="#638566" transform="translate(257.01171875,276.90234375)"/>
<path d="M0 0 C0.33 0 0.66 0 1 0 C1 2.31 1 4.62 1 7 C0.34 7 -0.32 7 -1 7 C-1.103125 7.680625 -1.20625 8.36125 -1.3125 9.0625 C-2.14725019 12.62915989 -3.49472754 15.66222194 -5 19 C-6.69904029 14.93663256 -5.11367988 11.68069214 -3.625 7.8125 C-3.39039063 7.17119141 -3.15578125 6.52988281 -2.9140625 5.86914062 C-1.16584821 1.16584821 -1.16584821 1.16584821 0 0 Z " fill="#718A6C" transform="translate(391,298)"/>
<path d="M0 0 C1.47906892 -0.02689216 2.95827483 -0.04634621 4.4375 -0.0625 C5.26121094 -0.07410156 6.08492188 -0.08570313 6.93359375 -0.09765625 C9 0 9 0 10 1 C10.07179964 2.51928038 10.08392007 4.04167482 10.0625 5.5625 C10.05347656 6.38878906 10.04445313 7.21507812 10.03515625 8.06640625 C10.02355469 8.70449219 10.01195312 9.34257812 10 10 C9.34 9.67 8.68 9.34 8 9 C8 6.69 8 4.38 8 2 C5.36 2 2.72 2 0 2 C0 1.34 0 0.68 0 0 Z " fill="#668569" transform="translate(294,382)"/>
<path d="M0 0 C2.49361571 1.20381448 4.68143083 2.45428722 7 4 C7.66 4 8.32 4 9 4 C9.33 6.97 9.66 9.94 10 13 C9.58105469 12.42636719 9.16210938 11.85273438 8.73046875 11.26171875 C6.44344174 8.27257961 3.93632075 5.50864779 1.42578125 2.70703125 C0 1 0 1 0 0 Z " fill="#7D8F65" transform="translate(269,303)"/>
<path d="M0 0 C0.66 0 1.32 0 2 0 C1.875 1.75 1.875 1.75 1 4 C-2.0625 6.25 -2.0625 6.25 -5 8 C-5.66 7.67 -6.32 7.34 -7 7 C-4.66666667 4.66666667 -2.33333333 2.33333333 0 0 Z " fill="#8F926B" transform="translate(275,342)"/>
<path d="M0 0 C1.32 0.33 2.64 0.66 4 1 C3.01 1.33 2.02 1.66 1 2 C1.66 3.98 2.32 5.96 3 8 C2.34 8 1.68 8 1 8 C0.67 8.99 0.34 9.98 0 11 C0 7.37 0 3.74 0 0 Z " fill="#EAAF69" transform="translate(459,280)"/>
<path d="M0 0 C0.515625 0.2475 1.03125 0.495 1.5625 0.75 C-4.8375 4.81153846 -4.8375 4.81153846 -7.875 4.5 C-8.390625 4.2525 -8.90625 4.005 -9.4375 3.75 C-3.0375 -0.31153846 -3.0375 -0.31153846 0 0 Z " fill="#8B9066" transform="translate(249.4375,279.25)"/>
<path d="M0 0 C0.66 0 1.32 0 2 0 C2.33 0.99 2.66 1.98 3 3 C2.67 3.33 2.34 3.66 2 4 C1.76807135 5.51469448 1.58784762 7.03754562 1.4375 8.5625 C1.35371094 9.38878906 1.26992187 10.21507812 1.18359375 11.06640625 C1.12300781 11.70449219 1.06242188 12.34257812 1 13 C0.67 13 0.34 13 0 13 C0 8.71 0 4.42 0 0 Z " fill="#758662" transform="translate(231,360)"/>
<path d="M0 0 C0.33 0 0.66 0 1 0 C1 2.31 1 4.62 1 7 C-0.32 7.33 -1.64 7.66 -3 8 C-1.125 1.125 -1.125 1.125 0 0 Z " fill="#7F825C" transform="translate(391,298)"/>
<path d="M0 0 C0.66 0.33 1.32 0.66 2 1 C0.87548273 3.9719385 -0.22293791 6.33440687 -2 9 C-2.33 7.68 -2.66 6.36 -3 5 C-2.34 5 -1.68 5 -1 5 C-0.67 3.35 -0.34 1.7 0 0 Z " fill="#AE9F6A" transform="translate(235,308)"/>
</svg>
