<?xml version="1.0" encoding="UTF-8"?>
<svg version="1.1" xmlns="http://www.w3.org/2000/svg" width="256" height="256">
<path d="M0 0 C1.16787552 -0.01879211 1.16787552 -0.01879211 2.35934448 -0.03796387 C19.06317734 -0.25475383 34.89381572 -0.36179284 50.83984375 5.2734375 C51.51901855 5.50337402 52.19819336 5.73331055 52.89794922 5.97021484 C68.07986896 11.20625404 81.60632561 18.94624201 93.83984375 29.2734375 C94.35144043 29.69995605 94.86303711 30.12647461 95.39013672 30.56591797 C118.64369528 50.16144766 134.67437944 79.09441971 138.83984375 109.2734375 C138.9769897 112.00125306 139.07327396 114.70474471 139.11328125 117.43359375 C139.13207336 118.60146927 139.13207336 118.60146927 139.15124512 119.79293823 C139.36803508 136.49677109 139.47507409 152.32740947 133.83984375 168.2734375 C133.60990723 168.9526123 133.3799707 169.63178711 133.14306641 170.33154297 C127.90702721 185.51346271 120.16703924 199.03991936 109.83984375 211.2734375 C109.20006592 212.04083252 109.20006592 212.04083252 108.54736328 212.82373047 C88.95183359 236.07728903 60.01886154 252.10797319 29.83984375 256.2734375 C27.11202819 256.41058345 24.40853654 256.50686771 21.6796875 256.546875 C20.51181198 256.56566711 20.51181198 256.56566711 19.32034302 256.58483887 C2.61651016 256.80162883 -13.21412822 256.90866784 -29.16015625 251.2734375 C-29.83933105 251.04350098 -30.51850586 250.81356445 -31.21826172 250.57666016 C-46.40018146 245.34062096 -59.92663811 237.60063299 -72.16015625 227.2734375 C-72.92755127 226.63365967 -72.92755127 226.63365967 -73.71044922 225.98095703 C-96.96400778 206.38542734 -112.99469194 177.45245529 -117.16015625 147.2734375 C-117.2973022 144.54562194 -117.39358646 141.84213029 -117.43359375 139.11328125 C-117.44612183 138.33469757 -117.4586499 137.55611389 -117.47155762 136.75393677 C-117.68834758 120.05010391 -117.79538659 104.21946553 -112.16015625 88.2734375 C-111.93021973 87.5942627 -111.7002832 86.91508789 -111.46337891 86.21533203 C-106.22733971 71.03341229 -98.48735174 57.50695564 -88.16015625 45.2734375 C-87.7336377 44.76184082 -87.30711914 44.25024414 -86.86767578 43.72314453 C-65.97266353 18.92752029 -32.84697446 0.48156504 0 0 Z " fill="#33745C" transform="translate(117.16015625,-0.2734375)"/>
<path d="M0 0 C3.3 0 6.6 0 10 0 C10 5.94 10 11.88 10 18 C10.66 18 11.32 18 12 18 C12 17.34 12 16.68 12 16 C16.59607772 12.5802493 20.41167986 12.37253316 25.98828125 12.5234375 C32.29910725 13.52203772 35.60525368 17.29143575 39.5 22.0625 C42.10199124 27.36024794 41.89923612 33.29356927 41 39 C38.80679141 44.45023264 35.40664943 50.41421114 30 53 C24.576873 53.71900414 19.03962482 54.19479387 14.3125 51.0625 C12 49 12 49 11 48 C10.67 49.32 10.34 50.64 10 52 C6.7 52 3.4 52 0 52 C0 34.84 0 17.68 0 0 Z " fill="#E0B175" transform="translate(86,103)"/>
<path d="M0 0 C2.89453125 2.0390625 2.89453125 2.0390625 5 4 C5.33 2.68 5.66 1.36 6 0 C9.3 0 12.6 0 16 0 C16 12.87 16 25.74 16 39 C12.7 39 9.4 39 6 39 C5.67 37.68 5.34 36.36 5 35 C4.236875 35.639375 3.47375 36.27875 2.6875 36.9375 C-1.89450128 40.45391959 -6.4111567 40.68903548 -12 40 C-17.57776271 37.15849824 -20.59184616 33.11223076 -24 28 C-24.67133711 20.5716985 -25.32804549 12.35681682 -21 6 C-15.31214133 -0.50457684 -8.34416517 -1.64532834 0 0 Z " fill="#E2B175" transform="translate(185,116)"/>
<path d="M0 0 C0 36.96 0 73.92 0 112 C-12.36120841 112 -12.36120841 112 -18.75390625 111.046875 C-19.44556885 110.94669571 -20.13723145 110.84651642 -20.84985352 110.74330139 C-22.32542584 110.52919846 -23.800532 110.31186049 -25.275177 110.09146118 C-29.23303611 109.50061535 -33.19453526 108.93541978 -37.15625 108.37109375 C-37.96784073 108.2551738 -38.77943146 108.13925385 -39.61561584 108.01982117 C-49.64396867 106.60309973 -59.70442672 105.46291776 -69.76977539 104.34472656 C-77.24739299 103.50465641 -84.61305569 102.44430349 -92 101 C-92 96.38 -92 91.76 -92 87 C-90.68 87 -89.36 87 -88 87 C-88 90.63 -88 94.26 -88 98 C-86.83488892 98.07456421 -86.83488892 98.07456421 -85.64624023 98.15063477 C-77.38518749 98.72641444 -69.25292068 99.73387586 -61.0625 100.9375 C-52.09333015 102.22398119 -43.15735064 103.34016821 -34.125 104.0625 C-26.6354821 104.66580147 -19.42958696 105.69276344 -12.09375 107.31640625 C-9.08359525 107.98152883 -6.0408174 108.4931971 -3 109 C-3 74.02 -3 39.04 -3 3 C-3.66 3.33 -4.32 3.66 -5 4 C-6.81769597 4.25636995 -8.64230757 4.4644477 -10.46875 4.6484375 C-11.59925781 4.76703125 -12.72976562 4.885625 -13.89453125 5.0078125 C-16.23553163 5.24622424 -18.57667042 5.48328228 -20.91796875 5.71875 C-27.54513634 6.41634659 -34.08734885 7.31856809 -40.6484375 8.46484375 C-50.43053082 10.16257382 -60.24948741 11.203758 -70.125 12.1875 C-71.87375137 12.36601363 -73.62244966 12.54504799 -75.37109375 12.72460938 C-79.58014528 13.15570835 -83.7898388 13.57988253 -88 14 C-88 17.63 -88 21.26 -88 25 C-89.32 25 -90.64 25 -92 25 C-92 20.38 -92 15.76 -92 11 C-71.24580685 7.86632232 -50.48723712 4.9623269 -29.64697266 2.45947266 C-27.13845741 2.14343131 -24.63291236 1.80317388 -22.13037109 1.44287109 C-20.21538818 1.16757568 -20.21538818 1.16757568 -18.26171875 0.88671875 C-17.13080811 0.71744873 -15.99989746 0.54817871 -14.8347168 0.3737793 C-9.91157362 -0.1060916 -4.94647499 0 0 0 Z " fill="#D5AC73" transform="translate(214,72)"/>
<path d="M0 0 C3.3 0 6.6 0 10 0 C10 17.16 10 34.32 10 52 C6.7 52 3.4 52 0 52 C0 34.84 0 17.68 0 0 Z " fill="#E0B173" transform="translate(47,103)"/>
<path d="M0 0 C3.3 0 6.6 0 10 0 C10.33 1.65 10.66 3.3 11 5 C11.70125 4.175 12.4025 3.35 13.125 2.5 C16 0 16 0 19.3125 -0.3125 C20.199375 -0.209375 21.08625 -0.10625 22 0 C22 3.3 22 6.6 22 10 C20.3603125 10.2165625 20.3603125 10.2165625 18.6875 10.4375 C15.06877013 10.88288104 15.06877013 10.88288104 12 12 C10.96285478 15.11143567 10.79968139 17.49468096 10.68359375 20.76171875 C10.64169922 21.87998047 10.59980469 22.99824219 10.55664062 24.15039062 C10.51732422 25.31763672 10.47800781 26.48488281 10.4375 27.6875 C10.39431641 28.86634766 10.35113281 30.04519531 10.30664062 31.25976562 C10.20048824 34.17305883 10.09843758 37.08643757 10 40 C6.7 40 3.4 40 0 40 C0 26.8 0 13.6 0 0 Z " fill="#DEB074" transform="translate(134,116)"/>
<path d="M0 0 C3.3 0 6.6 0 10 0 C10 13.2 10 26.4 10 40 C6.7 40 3.4 40 0 40 C0 26.8 0 13.6 0 0 Z " fill="#DBAF72" transform="translate(67,116)"/>
<path d="M0 0 C2.87029869 1.79393668 4.49131638 2.98263276 6 6 C6.35017306 11.3401391 6.46830225 14.66462219 3 19 C0.48950159 21.60015907 -0.79742587 21.97421784 -4.4375 22.4375 C-8.61907331 21.92397345 -10.1273824 21.03676718 -13 18 C-15.03969799 14.30911793 -15.51184637 11.18007873 -15 7 C-11.06142639 0.04185329 -7.71503326 -0.99935664 0 0 Z " fill="#3A755D" transform="translate(111,125)"/>
<path d="M0 0 C2.87029869 1.79393668 4.49131638 2.98263276 6 6 C6.35017306 11.3401391 6.46830225 14.66462219 3 19 C0.48950159 21.60015907 -0.79742587 21.97421784 -4.4375 22.4375 C-8.56657343 21.93042081 -10.13012478 20.95428331 -13 18 C-14.45371006 13.63886982 -14.61627299 9.55316989 -14 5 C-10.54419072 -0.57388593 -6.10736255 -1.22811095 0 0 Z " fill="#38745D" transform="translate(185,125)"/>
<path d="M0 0 C2.15502531 3.23253796 2.46856135 4.25150923 2 8 C0.875 9.8125 0.875 9.8125 -1 11 C-4.14924548 11.39365568 -6.11909116 11.52854531 -8.875 9.875 C-10.52854531 7.11909116 -10.39365568 5.14924548 -10 2 C-7.65569181 -2.27491494 -4.20074737 -1.06928115 0 0 Z " fill="#A19B70" transform="translate(126,235)"/>
<path d="M0 0 C2 2 2 2 2.3125 4.4375 C2 7 2 7 0.9375 8.8125 C-2.08503156 10.66501934 -4.54932719 10.37643703 -8 10 C-10.15502531 6.76746204 -10.46856135 5.74849077 -10 2 C-7.59255596 -2.24843066 -4.22911647 -0.99960935 0 0 Z " fill="#DFB177" transform="translate(76,101)"/>
<path d="M0 0 C2.875 1.5 2.875 1.5 5 4 C5.94237143 7.99893269 5.61136591 10.98105682 3.5 14.5 C-0.03588973 16.62153384 -2.97901723 16.791013 -7 16 C-9.5 14.5 -9.5 14.5 -11 12 C-11.60443392 9.19082139 -11.66040854 6.80242927 -11 4 C-7.72794548 0.1505241 -4.96702569 -0.82783761 0 0 Z M-7.8125 3.125 C-9.55198782 5.87155972 -9.39769128 7.81846974 -9 11 C-8 13 -8 13 -6 14 C-2.85514075 14.39310741 -0.86718329 14.47555213 1.9375 12.9375 C3.66665678 9.78433176 2.8590699 7.37491745 2 4 C-1.5161842 1.6558772 -4.05264908 0.79129943 -7.8125 3.125 Z " fill="#598365" transform="translate(125,232)"/>
<path d="M0 0 C10.03762284 -0.41758986 19.31113138 0.23537518 29 3 C29.66 3.66 30.32 4.32 31 5 C9.27659574 4.19148936 9.27659574 4.19148936 0 2 C0 1.34 0 0.68 0 0 Z " fill="#DBB37A" transform="translate(164,176)"/>
<path d="M0 0 C7.23785489 -0.42575617 14.09158937 0.78849704 21 3 C21.33 3.66 21.66 4.32 22 5 C19.31243045 5.02720824 16.62514202 5.0469388 13.9375 5.0625 C13.18533203 5.07087891 12.43316406 5.07925781 11.65820312 5.08789062 C6.99366882 5.10808341 2.60076827 4.77595959 -2 4 C-2 3.67 -2 3.34 -2 3 C2.29 3 6.58 3 11 3 C7.37 2.34 3.74 1.68 0 1 C0 0.67 0 0.34 0 0 Z " fill="#B7A472" transform="translate(182,177)"/>
<path d="M0 0 C0 0.66 0 1.32 0 2 C-7.42640842 3.60881575 -14.40501039 4.26442904 -22 4 C-21.67 3.34 -21.34 2.68 -21 2 C-13.93910871 -0.08354169 -7.32557399 -0.22311393 0 0 Z " fill="#DEB378" transform="translate(193,75)"/>
<path d="M0 0 C2.625 0.375 2.625 0.375 5 1 C5.625 3.375 5.625 3.375 6 6 C5.34 6.66 4.68 7.32 4 8 C1.375 7.625 1.375 7.625 -1 7 C-1.625 4.625 -1.625 4.625 -2 2 C-1.34 1.34 -0.68 0.68 0 0 Z " fill="#DCB279" transform="translate(120,236)"/>
<path d="M0 0 C0 0.33 0 0.66 0 1 C2.97 1.495 2.97 1.495 6 2 C6 2.33 6 2.66 6 3 C-1.92 3.495 -1.92 3.495 -10 4 C-10 3.34 -10 2.68 -10 2 C-11.65 2 -13.3 2 -15 2 C-15 1.67 -15 1.34 -15 1 C-10.03926578 -0.32286246 -5.08888488 -0.08893197 0 0 Z " fill="#D0AB72" transform="translate(203,73)"/>
<path d="M0 0 C-1.32 0.33 -2.64 0.66 -4 1 C-4.144375 2.093125 -4.28875 3.18625 -4.4375 4.3125 C-5 8 -5 8 -6 11 C-8 9 -8 9 -8.3125 6.0625 C-8 3 -8 3 -6.8125 1.125 C-4.43963721 -0.34781139 -2.74086056 -0.22223194 0 0 Z " fill="#98976C" transform="translate(124,234)"/>
<path d="M0 0 C0 0.33 0 0.66 0 1 C-1.98 1.33 -3.96 1.66 -6 2 C-3.03 2.495 -3.03 2.495 0 3 C0 3.33 0 3.66 0 4 C-2.64 4 -5.28 4 -8 4 C-8 3.34 -8 2.68 -8 2 C-9.32 1.67 -10.64 1.34 -12 1 C-8.0186217 -0.3271261 -4.14954773 -0.06915913 0 0 Z " fill="#B9A370" transform="translate(178,76)"/>
<path d="M0 0 C0 0.33 0 0.66 0 1 C-1.98 1.33 -3.96 1.66 -6 2 C-4.35 2.33 -2.7 2.66 -1 3 C-1 3.33 -1 3.66 -1 4 C-3.31 4 -5.62 4 -8 4 C-8 3.34 -8 2.68 -8 2 C-9.65 2 -11.3 2 -13 2 C-13 1.67 -13 1.34 -13 1 C-8.59085217 -0.10228696 -4.51617599 -0.07654536 0 0 Z " fill="#B1A06E" transform="translate(201,73)"/>
<path d="M0 0 C-0.99 0.495 -0.99 0.495 -2 1 C0.97 1.495 0.97 1.495 4 2 C4 2.33 4 2.66 4 3 C1.36 3 -1.28 3 -4 3 C-4 2.34 -4 1.68 -4 1 C-5.98 1 -7.96 1 -10 1 C-10 0.67 -10 0.34 -10 0 C-6.33694766 -0.74926071 -3.57644848 -1.2380014 0 0 Z " fill="#B1A16E" transform="translate(160,79)"/>
</svg>
